<?xml version="1.0" standalone="no"?>
<!DOCTYPE svg PUBLIC "-//W3C//DTD SVG 20010904//EN"
 "http://www.w3.org/TR/2001/REC-SVG-20010904/DTD/svg10.dtd">
<svg version="1.0" xmlns="http://www.w3.org/2000/svg"
 width="300.000000pt" height="300.000000pt" viewBox="0 0 300.000000 300.000000"
 preserveAspectRatio="xMidYMid meet">
<metadata>
Created by potrace 1.11, written by Peter Selinger 2001-2013
</metadata>
<g transform="translate(0.000000,300.000000) scale(0.100000,-0.100000)"
fill="#000000" stroke="none">
<path d="M1399 2942 c-29 -19 -59 -53 -89 -100 -30 -47 -55 -75 -75 -84 -47
-20 -237 -124 -330 -181 -238 -146 -450 -336 -581 -522 -33 -48 -38 -50 -122
-73 -186 -49 -237 -129 -168 -264 15 -29 42 -71 61 -93 19 -22 35 -44 36 -50
0 -5 2 -19 3 -30 2 -11 6 -47 10 -80 13 -113 59 -340 95 -464 57 -196 150
-400 254 -557 45 -68 47 -73 46 -140 -1 -131 40 -209 124 -236 47 -15 134 -9
202 14 25 9 55 11 80 7 91 -16 243 -37 330 -46 39 -3 153 -7 255 -7 229 -1
314 7 530 50 l125 25 74 -21 c89 -27 178 -24 212 6 44 39 61 97 57 202 -3 93
-2 99 28 147 123 200 225 473 273 730 28 147 30 161 37 225 10 99 12 125 13
161 1 25 10 47 31 70 45 51 90 146 90 191 0 21 -7 52 -15 68 -24 46 -98 96
-181 122 -65 20 -81 29 -112 68 -102 127 -430 420 -470 420 -6 0 -12 4 -14 8
-9 24 -283 173 -444 242 -30 13 -58 34 -67 50 -30 50 -109 131 -148 150 -53
28 -97 25 -150 -8z"/>
</g>
</svg>
